<svg width="800" height="800" viewBox="0 0 800 800" fill="none" xmlns="http://www.w3.org/2000/svg">
<g clip-path="url(#clip0_78_2)">
<path d="M117.093 682.908C192.599 758.416 293.072 800 400 800C506.929 800 607.402 758.415 682.908 682.908C758.416 607.4 800 506.928 800 400C800 293.072 758.416 192.6 682.908 117.092C607.402 41.5845 506.929 9.31573e-06 400 1.27146e-05C293.072 1.61135e-05 192.599 41.5846 117.093 117.092C41.585 192.6 0.000472168 293.072 0.000475567 400C0.000478966 506.928 41.585 607.4 117.093 682.908ZM400 25.8065C606.332 25.8065 774.194 193.669 774.194 400C774.194 606.331 606.332 774.194 400 774.194C193.669 774.194 25.8069 606.331 25.8069 400C25.8069 193.669 193.669 25.8065 400 25.8065Z" fill="white"/>
<path d="M365.591 400C365.591 418.973 381.027 434.409 400 434.409C418.973 434.409 434.409 418.973 434.409 400C434.409 381.027 418.973 365.591 400 365.591C381.027 365.591 365.591 381.027 365.591 400ZM408.602 400C408.602 404.743 404.743 408.602 400 408.602C395.257 408.602 391.398 404.743 391.398 400C391.398 395.257 395.257 391.398 400 391.398C404.743 391.398 408.602 395.257 408.602 400Z" fill="white"/>
<path d="M257.204 400C257.204 478.739 321.263 542.796 400 542.796C478.737 542.796 542.796 478.739 542.796 400C542.796 321.261 478.737 257.205 400 257.204C321.263 257.204 257.204 321.261 257.204 400ZM516.989 400C516.989 464.508 464.507 516.989 400 516.989C335.492 516.989 283.011 464.508 283.011 400C283.011 335.493 335.492 283.011 400 283.011C464.507 283.011 516.989 335.493 516.989 400Z" fill="white"/>
<path fill-rule="evenodd" clip-rule="evenodd" d="M401 786L401 539.499C488.5 539.499 538.5 467.5 538.5 401L782 401C790.5 542 662 786 401 786ZM430.903 740.581C601.659 740.581 740.581 601.659 740.581 430.903C740.581 423.776 746.358 418 753.484 418C760.61 418 766.387 423.776 766.387 430.903C766.387 520.584 731.509 604.851 668.18 668.18C604.851 731.511 520.584 766.387 430.903 766.387C423.777 766.387 418 760.612 418 753.484C418 746.356 423.777 740.581 430.903 740.581ZM676.268 543.216C676.268 545.102 675.851 547.015 674.977 548.825C653.128 594.016 619.189 632.225 576.828 659.321C533.312 687.156 482.852 701.871 430.903 701.871C423.777 701.871 418 696.096 418 688.968C418 681.84 423.777 676.065 430.903 676.065C525.828 676.065 610.447 623.005 651.745 537.591C654.846 531.175 662.563 528.488 668.978 531.591C673.584 533.818 676.268 538.423 676.268 543.216ZM676.065 430.903C676.065 451.442 673.529 471.848 668.526 491.548C666.771 498.451 670.95 505.477 677.857 507.23C684.765 508.983 691.786 504.806 693.539 497.899C699.069 476.123 701.871 453.584 701.871 430.903C701.871 423.776 696.094 418 688.968 418C681.842 418 676.065 423.776 676.065 430.903ZM550.948 565.955C589.46 531.703 611.548 482.48 611.548 430.903C611.548 423.776 617.324 418 624.45 418C631.576 418 637.353 423.776 637.353 430.903C637.353 489.842 612.111 546.095 568.097 585.24C562.772 589.976 554.616 589.498 549.881 584.173C545.145 578.847 545.625 570.693 550.948 565.955ZM529.637 604.453C529.637 602.532 529.207 600.579 528.295 598.74C525.135 592.354 517.394 589.739 511.008 592.899C486.003 605.272 459.053 611.549 430.903 611.549C423.777 611.549 418 617.324 418 624.452C418 631.579 423.777 637.355 430.903 637.355C463.058 637.355 493.861 630.179 522.454 616.029C527.001 613.778 529.637 609.207 529.637 604.453Z" fill="white"/>
</g>
<defs>
<clipPath id="clip0_78_2">
<rect width="800" height="800" fill="white"/>
</clipPath>
</defs>
</svg>
