<svg width="800" height="800" viewBox="0 0 800 800" xmlns="http://www.w3.org/2000/svg">
<path fill-rule="evenodd" clip-rule="evenodd" d="M400 434.409C381.027 434.409 365.591 418.973 365.591 400.001C365.591 381.028 381.027 365.592 400 365.592C418.973 365.592 434.409 381.028 434.409 400.001C434.409 418.973 418.973 434.409 400 434.409ZM400 408.603C404.743 408.603 408.602 404.744 408.602 400.001C408.602 395.257 404.743 391.398 400 391.398C395.257 391.398 391.398 395.257 391.398 400.001C391.398 404.744 395.257 408.603 400 408.603Z" fill="#fff"/>
<path fill-rule="evenodd" clip-rule="evenodd" d="M400.003 800.001C293.075 800.001 192.602 758.416 117.095 682.909C41.5875 607.401 0.00293309 506.929 0.00292969 400.001C0.00292629 293.073 41.5875 192.601 117.095 117.093C192.602 41.5855 293.075 0.000975287 400.003 0.000976562C506.931 0.000977838 607.404 41.5855 682.91 117.093C758.418 192.601 800.003 293.073 800.003 400.001C800.003 506.929 758.418 607.401 682.91 682.909C607.404 758.416 506.931 800.001 400.003 800.001ZM774.196 400C774.196 193.67 606.334 25.8074 400.003 25.8074C193.672 25.8074 25.8094 193.67 25.8094 400.001C25.8094 606.331 193.67 774.193 400 774.195L400.001 543C400.001 543 400.393 542.932 401.133 542.792C400.756 542.795 400.378 542.796 400 542.796C321.263 542.796 257.204 478.74 257.204 400.001C257.204 321.262 321.263 257.205 400 257.205C478.737 257.205 542.796 321.262 542.796 400.001C542.796 400.38 542.794 400.759 542.791 401.138C542.931 400.395 543 400 543 400H774.196ZM516.989 400.001C516.989 464.508 464.507 516.99 400 516.99C335.492 516.99 283.011 464.508 283.011 400.001C283.011 335.493 335.492 283.011 400 283.011C464.507 283.011 516.989 335.493 516.989 400.001ZM732.581 422.904C732.581 593.66 593.66 732.581 422.904 732.581C415.778 732.581 410 738.357 410 745.484C410 752.612 415.778 758.387 422.904 758.387C512.585 758.387 596.851 723.511 660.18 660.18C723.509 596.851 758.388 512.584 758.388 422.904C758.388 415.776 752.61 410 745.484 410C738.358 410 732.581 415.776 732.581 422.904ZM668.268 535.217C668.268 537.102 667.852 539.015 666.978 540.825C645.128 586.016 611.189 624.225 568.829 651.322C525.312 679.156 474.852 693.871 422.904 693.871C415.778 693.871 410 688.096 410 680.968C410 673.84 415.778 668.065 422.904 668.065C517.828 668.065 602.448 615.005 643.745 529.591C646.847 523.175 654.563 520.488 660.979 523.592C665.584 525.818 668.268 530.424 668.268 535.217ZM668.065 422.904C668.065 443.443 665.529 463.849 660.526 483.549C658.771 490.452 662.95 497.478 669.858 499.231C676.765 500.984 683.786 496.807 685.54 489.899C691.069 468.124 693.872 445.584 693.872 422.904C693.872 415.776 688.094 410.001 680.968 410.001C673.842 410.001 668.065 415.776 668.065 422.904ZM542.948 557.956C581.46 523.704 603.549 474.48 603.549 422.904C603.549 415.776 609.324 410 616.45 410C623.576 410 629.354 415.776 629.354 422.904C629.354 481.842 604.111 538.095 560.098 577.24C554.773 581.976 546.616 581.498 541.882 576.173C537.145 570.847 537.625 562.694 542.948 557.956ZM521.638 596.454C521.638 594.532 521.207 592.579 520.296 590.74C517.135 584.354 509.395 581.739 503.009 584.899C478.004 597.273 451.053 603.549 422.904 603.549C415.778 603.549 410 609.324 410 616.452C410 623.58 415.778 629.355 422.904 629.355C455.059 629.355 485.861 622.179 514.455 608.029C519.002 605.778 521.638 601.207 521.638 596.454Z" fill="#fff"/>
</svg>
